<?xml version="1.0" standalone="no"?>
<!DOCTYPE svg PUBLIC "-//W3C//DTD SVG 20010904//EN"
 "http://www.w3.org/TR/2001/REC-SVG-20010904/DTD/svg10.dtd">
<svg version="1.0" xmlns="http://www.w3.org/2000/svg"
 width="924.000000pt" height="981.000000pt" viewBox="0 0 924.000000 981.000000"
 preserveAspectRatio="xMidYMid meet">

<g transform="translate(0.000000,981.000000) scale(0.100000,-0.100000)"
fill="#C9C9C9" stroke="none">
<path d="M5760 9791 c-357 -78 -628 -332 -720 -676 -32 -120 -37 -294 -12
-415 111 -536 625 -858 1157 -724 88 22 271 115 345 176 137 113 248 279 305
458 37 114 46 323 20 451 -34 171 -116 328 -239 457 -122 128 -275 219 -443
263 -114 30 -302 35 -413 10z"/>
<path d="M4655 8201 c-229 -37 -435 -175 -545 -366 -37 -66 -926 -2229 -948
-2309 -12 -43 -17 -97 -16 -186 1 -107 5 -137 27 -205 15 -44 27 -83 27 -87 0
-3 -80 -8 -177 -10 -164 -3 -182 -5 -227 -27 -185 -91 -227 -331 -84 -478 23
-23 64 -52 92 -65 49 -22 64 -23 328 -26 l276 -3 10 -27 c5 -15 69 -199 142
-409 l133 -383 -157 -948 c-104 -634 -156 -974 -156 -1024 0 -270 219 -489
489 -488 91 1 145 12 217 46 115 54 207 156 252 277 12 30 92 491 192 1097
149 905 172 1055 167 1120 -5 76 -17 113 -261 813 -36 103 -63 187 -60 187 11
0 648 -121 651 -123 1 -2 -40 -64 -92 -139 -52 -75 -95 -142 -95 -149 0 -8 35
-115 77 -239 l77 -225 3 -130 c3 -126 0 -150 -111 -815 -62 -377 -113 -686
-111 -688 1 -1 123 133 270 298 148 165 269 299 271 297 1 -1 -13 -54 -31
-117 -164 -571 -77 -1187 241 -1701 320 -518 853 -867 1440 -944 1058 -139
2026 597 2235 1699 30 159 38 504 14 671 -33 243 -91 436 -194 650 -117 244
-237 410 -432 601 -341 331 -744 516 -1214 556 -97 8 -166 9 -223 2 -79 -9
-83 -9 -88 11 -2 11 -47 267 -98 568 -52 302 -96 550 -98 552 -2 2 -40 -7 -86
-21 -52 -15 -125 -26 -193 -30 -90 -6 -109 -10 -109 -23 0 -9 20 -133 45 -276
25 -143 45 -268 45 -277 0 -16 -14 -18 -161 -18 -149 0 -161 1 -156 18 4 9 16
44 28 77 63 174 -5 406 -157 529 -101 83 -129 91 -594 180 -157 30 -383 74
-502 96 l-217 42 15 37 c9 20 27 65 42 100 25 64 26 64 41 40 8 -13 40 -49 71
-80 79 -78 179 -126 290 -139 109 -13 1239 -13 1346 -1 228 27 394 179 440
405 53 256 -125 521 -384 575 -34 7 -222 11 -536 11 l-482 0 -112 274 -112
274 32 93 c30 88 32 103 33 234 0 119 -3 151 -23 215 -80 255 -269 439 -521
509 -84 23 -222 34 -296 22z m1455 -3917 c0 -6 -589 -664 -595 -664 -2 0 100
151 227 335 l231 335 69 0 c37 0 68 -2 68 -6z m550 -85 c7 -39 10 -72 8 -75
-13 -12 -217 -70 -210 -59 12 20 176 203 184 204 3 1 12 -31 18 -70z m860
-484 c288 -63 552 -208 764 -421 555 -554 644 -1444 212 -2109 -247 -380 -648
-638 -1083 -696 -123 -16 -383 -6 -498 19 -208 47 -403 135 -570 257 -336 247
-552 588 -642 1014 -24 113 -27 147 -27 331 0 184 3 218 27 331 95 450 343
817 715 1057 87 56 273 146 316 154 18 3 28 -44 137 -682 l118 -685 -26 -59
c-22 -51 -25 -69 -21 -135 6 -92 28 -140 93 -200 61 -56 106 -74 185 -74 113
-1 206 60 256 167 18 40 24 68 24 126 0 89 -20 138 -78 202 l-40 43 -116 676
c-64 372 -116 685 -116 694 0 16 11 17 148 12 81 -3 181 -13 222 -22z"/>
<path d="M1850 4203 c-97 -8 -285 -45 -392 -78 -309 -94 -568 -248 -807 -480
-133 -129 -209 -220 -303 -365 -165 -252 -275 -547 -324 -865 -23 -149 -23
-461 0 -610 60 -391 216 -753 453 -1045 85 -104 271 -283 378 -362 447 -332
1015 -458 1560 -346 384 78 795 315 1056 609 90 101 180 219 174 229 -3 4 -17
11 -32 15 -41 10 -162 73 -208 108 -22 17 -63 52 -91 79 l-51 49 -71 -90
c-222 -278 -540 -473 -892 -548 -132 -28 -461 -25 -590 6 -406 96 -740 330
-966 677 -266 408 -343 925 -208 1396 148 513 534 924 1019 1086 172 57 240
67 465 67 188 0 215 -3 318 -27 194 -46 446 -164 571 -267 l34 -28 -457 -499
-458 -498 -63 -16 c-145 -37 -229 -146 -228 -296 1 -110 63 -213 156 -258 105
-52 213 -41 294 29 l41 35 439 0 439 0 28 173 c15 94 30 184 33 199 l5 28
-346 2 -347 3 361 395 c199 217 366 400 372 405 6 7 21 -3 44 -29 22 -26 35
-34 38 -25 2 8 23 131 46 274 l42 260 -38 109 -37 109 -23 -27 c-13 -14 -25
-26 -28 -26 -2 0 -43 29 -90 64 -379 282 -844 416 -1316 379z"/>
</g>
</svg>
