<?xml version="1.0" standalone="no"?>
<!DOCTYPE svg PUBLIC "-//W3C//DTD SVG 20010904//EN"
 "http://www.w3.org/TR/2001/REC-SVG-20010904/DTD/svg10.dtd">
<svg version="1.0" xmlns="http://www.w3.org/2000/svg"
 width="816.000000pt" height="980.000000pt" viewBox="0 0 816.000000 980.000000"
 preserveAspectRatio="xMidYMid meet">

<g transform="translate(0.000000,980.000000) scale(0.100000,-0.100000)"
fill="#C9C9C9" stroke="none">
<path d="M5887 9785 c-206 -39 -381 -128 -552 -279 -119 -105 -212 -250 -250
-391 -25 -95 -30 -281 -11 -412 21 -140 71 -325 136 -499 28 -75 49 -138 46
-141 -7 -7 -146 40 -331 112 -158 62 -322 133 -730 317 -115 52 -268 119 -340
148 -71 29 -183 81 -247 116 -155 86 -214 106 -308 107 -74 0 -81 -2 -380
-126 -625 -257 -1128 -477 -1446 -632 -169 -83 -199 -101 -267 -165 -123 -115
-166 -233 -137 -375 37 -178 148 -311 302 -365 90 -30 222 -37 328 -16 107 21
447 165 830 351 394 192 495 221 724 212 158 -6 250 -29 391 -96 236 -112 396
-254 395 -352 -1 -35 -35 -106 -76 -156 -19 -24 -196 -190 -392 -370 -523
-480 -778 -742 -970 -996 -144 -191 -202 -338 -204 -513 -1 -112 13 -175 62
-279 72 -156 136 -222 730 -755 800 -717 805 -723 825 -788 9 -33 -18 -70 -68
-92 -23 -10 -130 -37 -237 -59 -177 -36 -802 -175 -1060 -236 -174 -41 -310
-123 -398 -241 -141 -188 -127 -381 40 -545 70 -69 204 -140 303 -160 134 -27
185 -20 700 99 833 193 1402 320 1775 397 255 52 327 78 425 153 64 49 137
145 165 219 27 70 37 190 21 263 -25 116 -54 158 -476 691 -268 338 -522 693
-607 849 -97 178 -95 300 8 456 72 109 568 599 673 665 32 21 58 29 90 29 42
0 49 -4 101 -59 30 -32 93 -121 139 -197 47 -76 112 -183 145 -238 117 -190
220 -266 371 -274 147 -8 542 46 904 124 370 79 901 216 946 244 126 78 202
269 176 443 -23 147 -122 291 -237 344 -76 34 -192 40 -381 19 -78 -9 -180
-16 -225 -16 -101 0 -161 -15 -343 -85 -262 -100 -350 -96 -477 23 -133 124
-234 306 -363 649 -87 232 -143 326 -365 613 -118 153 -260 351 -260 363 0 2
38 -9 85 -25 168 -58 287 -79 465 -85 188 -6 284 7 424 58 262 94 490 334 587
616 49 144 65 371 35 523 -39 205 -128 374 -275 521 -131 131 -302 227 -488
275 -126 33 -329 41 -446 19z"/>
<path d="M247 6459 c-108 -15 -187 -68 -214 -141 -15 -43 -16 -141 -1 -190 16
-55 79 -122 141 -152 94 -44 139 -47 642 -40 401 6 504 4 698 -11 191 -15 246
-16 334 -6 256 29 434 114 626 300 85 82 207 226 207 243 0 9 -2367 6 -2433
-3z"/>
<path d="M550 5439 c-200 -16 -353 -39 -399 -60 -89 -39 -143 -110 -144 -188
-1 -107 68 -219 161 -259 47 -21 62 -21 890 -23 l842 -3 25 24 c37 35 48 82
43 184 -6 107 -30 171 -85 228 -49 50 -98 64 -293 84 -190 19 -868 28 -1040
13z"/>
<path d="M259 4327 c-78 -11 -175 -61 -204 -105 -50 -78 -57 -190 -15 -272 29
-56 94 -107 170 -132 l65 -21 1295 1 c712 1 1309 5 1325 8 79 16 96 62 46 130
-49 67 -263 270 -329 312 -35 23 -93 51 -130 63 l-66 22 -1051 1 c-579 1
-1076 -2 -1106 -7z"/>
<path d="M5135 2474 c-32 -26 -135 -70 -205 -88 -36 -9 -166 -30 -290 -46
-305 -40 -408 -71 -537 -158 -132 -89 -154 -120 -593 -817 -128 -203 -278
-439 -332 -523 -55 -84 -110 -177 -123 -207 -82 -185 -33 -368 132 -500 211
-168 451 -177 619 -23 26 23 131 156 234 293 402 538 1299 1782 1342 1860 38
69 37 108 -5 150 -52 52 -205 89 -242 59z"/>
</g>
</svg>
