<?xml version="1.0" standalone="no"?>
<!DOCTYPE svg PUBLIC "-//W3C//DTD SVG 20010904//EN"
 "http://www.w3.org/TR/2001/REC-SVG-20010904/DTD/svg10.dtd">
<svg version="1.0" xmlns="http://www.w3.org/2000/svg"
 width="980.000000pt" height="858.000000pt" viewBox="0 0 980.000000 858.000000"
 preserveAspectRatio="xMidYMid meet">

<g transform="translate(0.000000,858.000000) scale(0.100000,-0.100000)"
fill="#C9C9C9" stroke="none">
<path d="M6560 8340 c-1757 -401 -2068 -476 -2134 -517 -102 -65 -198 -168
-249 -269 -40 -80 -60 -198 -55 -329 4 -110 5 -115 52 -211 77 -161 443 -836
668 -1232 60 -106 108 -197 106 -203 -2 -5 -903 -517 -2003 -1137 -1100 -620
-2002 -1131 -2005 -1136 -3 -4 45 -35 105 -68 160 -87 222 -130 404 -283 215
-180 351 -281 429 -318 53 -25 82 -31 181 -38 158 -12 350 2 413 29 65 29 206
126 308 212 372 315 512 405 750 484 131 44 229 56 441 56 290 0 441 -24 600
-97 205 -93 291 -150 573 -386 199 -166 318 -249 404 -279 50 -18 81 -20 252
-20 168 0 204 3 260 21 98 31 205 103 424 286 457 381 619 451 1125 484 84 6
155 12 157 14 2 1 -155 268 -348 592 -1381 2324 -1674 2826 -1655 2836 7 4
365 89 797 188 925 214 1316 312 1386 346 103 51 222 174 280 290 119 241 60
557 -138 740 -72 67 -204 135 -308 159 -136 32 -138 32 -1220 -214z"/>
<path d="M8167 6624 c-390 -60 -707 -288 -882 -634 -107 -212 -145 -449 -111
-680 71 -468 396 -828 866 -958 87 -23 111 -26 285 -26 175 0 198 2 288 26
314 86 573 294 737 593 86 159 121 315 122 559 0 133 -3 163 -25 247 -92 339
-309 609 -614 763 -103 51 -204 83 -339 106 -133 23 -202 24 -327 4z"/>
<path d="M213 2946 c-83 -43 -143 -104 -182 -186 -35 -76 -37 -210 -3 -285 71
-156 143 -200 384 -235 276 -39 318 -61 628 -320 258 -216 369 -291 541 -367
190 -83 347 -113 594 -113 185 0 286 11 421 45 226 57 432 177 696 406 242
209 384 300 513 328 134 28 326 20 438 -18 128 -44 191 -86 407 -269 259 -221
407 -323 563 -389 179 -76 419 -110 697 -100 388 14 601 109 1013 454 202 169
323 255 421 297 l71 31 205 0 205 0 85 -41 c106 -51 195 -113 375 -264 354
-295 497 -378 775 -448 95 -24 123 -26 295 -27 l190 0 54 30 c64 35 132 109
169 185 23 47 27 67 26 140 -1 109 -27 180 -92 249 -60 63 -136 98 -255 118
-351 57 -386 72 -627 279 -388 332 -591 448 -890 511 -67 14 -132 18 -305 18
-193 0 -232 -3 -323 -23 -144 -32 -241 -65 -358 -123 -127 -62 -239 -142 -471
-336 -334 -279 -385 -303 -650 -303 -290 0 -371 35 -663 285 -330 282 -498
385 -755 460 -114 33 -323 47 -538 35 -399 -23 -596 -116 -1031 -490 -131
-111 -266 -210 -342 -248 -58 -29 -147 -42 -294 -42 -293 1 -365 32 -660 285
-212 181 -364 290 -495 355 -211 104 -350 138 -600 147 l-160 5 -72 -36z"/>
<path d="M261 1546 c-57 -19 -138 -75 -174 -121 -43 -54 -78 -140 -84 -203
-12 -134 98 -316 223 -368 19 -8 99 -24 177 -34 164 -23 227 -40 311 -82 89
-45 127 -73 339 -250 214 -178 370 -287 497 -347 303 -142 722 -170 1072 -72
241 68 413 173 713 435 261 228 396 298 611 313 244 17 425 -65 737 -334 268
-232 480 -357 712 -419 338 -90 700 -68 1006 61 172 72 276 143 561 382 84 71
184 151 221 177 252 179 617 177 883 -5 23 -16 131 -104 240 -195 110 -92 243
-196 296 -231 244 -160 488 -235 778 -237 138 -1 148 0 202 26 74 34 152 112
186 186 23 49 27 70 27 147 -1 80 -4 97 -30 149 -16 33 -49 81 -73 107 -63 71
-122 94 -298 119 -271 39 -335 71 -604 300 -341 290 -489 381 -743 454 -279
81 -641 73 -923 -20 -212 -70 -373 -174 -691 -446 -264 -225 -388 -282 -623
-282 -145 0 -212 15 -332 75 -109 54 -176 101 -335 237 -288 244 -443 342
-653 412 -206 69 -462 96 -680 71 -359 -42 -587 -158 -985 -501 -223 -191
-305 -241 -460 -276 -110 -25 -283 -23 -386 4 -135 36 -228 94 -429 266 -381
327 -579 437 -885 491 -130 23 -348 29 -404 11z"/>
</g>
</svg>
