<?xml version="1.0" standalone="no"?>
<!DOCTYPE svg PUBLIC "-//W3C//DTD SVG 20010904//EN"
 "http://www.w3.org/TR/2001/REC-SVG-20010904/DTD/svg10.dtd">
<svg version="1.0" xmlns="http://www.w3.org/2000/svg"
 width="800.000000pt" height="800.000000pt" viewBox="0 0 800.000000 800.000000"
 preserveAspectRatio="xMidYMid meet">

<g transform="translate(0.000000,800.000000) scale(0.100000,-0.100000)"
fill="#C9C9C9" stroke="none">
<path d="M4903 7354 c-34 -44 -142 -173 -321 -383 -245 -286 -264 -357 -193
-711 16 -80 38 -187 50 -237 12 -51 21 -108 21 -127 0 -19 4 -37 9 -41 6 -3
13 -26 17 -51 4 -26 13 -48 21 -51 27 -10 122 17 138 40 9 13 18 18 24 12 5
-6 71 -300 146 -655 74 -355 151 -717 170 -805 107 -495 365 -1720 365 -1731
0 -7 -17 -18 -37 -24 -51 -14 -390 -72 -678 -116 -55 -8 -561 -91 -1125 -185
-863 -143 -2419 -400 -2665 -441 -38 -6 -77 -17 -86 -25 -8 -7 -22 -13 -30
-12 -8 0 -6 4 6 9 17 7 17 9 3 9 -36 2 -420 -76 -453 -91 -28 -13 -46 -61 -69
-183 -26 -144 -27 -168 -6 -208 11 -20 20 -43 20 -50 0 -15 178 -160 305 -249
197 -138 618 -352 746 -379 117 -25 340 -2 769 80 85 16 158 26 161 23 4 -4
26 -50 49 -103 43 -98 67 -124 120 -132 13 -2 28 -10 34 -19 30 -40 90 -48
156 -22 31 13 42 23 47 45 4 21 14 31 38 39 18 6 39 18 47 28 8 9 31 75 52
147 20 71 38 130 39 131 1 1 272 52 602 113 330 62 803 150 1050 196 248 47
533 98 635 115 102 17 219 37 260 45 259 50 349 62 400 57 42 -4 50 -7 35 -14
-16 -7 -14 -7 7 -3 24 5 154 -40 265 -90 17 -8 34 -15 38 -15 3 0 25 -8 48
-19 23 -10 86 -35 140 -55 142 -53 205 -51 607 19 438 77 573 95 610 84 50
-15 99 1 139 46 48 55 55 165 13 207 -18 19 -18 22 30 191 26 94 48 186 48
204 0 38 -34 217 -48 254 -6 14 -24 31 -40 38 -18 7 -33 23 -36 36 -6 25 -46
42 -111 47 l-30 3 -57 300 c-31 165 -100 530 -153 810 -106 560 -262 1385
-351 1845 -66 344 -69 403 -48 846 16 352 1 657 -35 695 -11 12 -52 23 -128
35 -62 9 -113 21 -113 26 0 5 47 68 105 140 58 73 105 139 105 149 0 36 -72
99 -114 99 -16 0 -51 -33 -68 -65 -10 -18 -10 -19 6 -6 30 25 29 3 -3 -44 -17
-26 -29 -50 -26 -55 3 -5 0 -12 -6 -16 -8 -5 -9 -3 -4 7 4 8 -3 3 -16 -11 -13
-14 -21 -28 -17 -31 7 -4 -22 -42 -106 -139 -12 -14 -52 -63 -90 -110 -62 -77
-97 -109 -118 -110 -16 0 -7 29 16 56 14 16 73 88 132 159 59 72 115 138 125
148 11 10 19 22 19 27 0 5 16 26 35 47 32 35 46 61 28 50 -5 -3 -98 1 -208 9
-276 18 -357 19 -382 3 -12 -7 -71 -63 -133 -125 l-112 -112 -196 9 c-108 4
-255 8 -326 9 -124 0 -130 -1 -164 -26 -37 -29 -359 -393 -456 -516 -37 -47
-63 -73 -67 -65 -3 7 -11 44 -18 82 -22 127 0 181 136 342 293 346 396 469
400 481 11 27 -66 102 -104 102 -7 0 -25 -16 -40 -36z m-30 -104 c-15 -22 -34
-40 -41 -40 -8 0 3 21 25 49 44 57 58 50 16 -9z m-54 -79 c-8 -11 -54 -66
-104 -123 -49 -57 -102 -117 -116 -134 -31 -38 -69 -61 -69 -42 0 27 258 318
283 318 17 0 18 -2 6 -19z m491 -266 c-5 -6 -23 -12 -41 -13 -28 -2 -30 0 -19
13 7 8 25 14 41 13 19 -1 25 -6 19 -13z m217 -21 c0 -7 -12 -12 -29 -12 -15 1
-28 5 -28 10 0 5 5 6 10 3 6 -3 10 -2 10 4 0 5 8 9 18 8 10 0 19 -7 19 -13z
m183 2 c0 -3 -4 -8 -10 -11 -5 -3 -10 -1 -10 4 0 6 5 11 10 11 6 0 10 -2 10
-4z m17 -14 c0 -10 -9 -19 -18 -19 -17 -2 -17 -1 -1 17 22 23 21 23 19 2z
m873 -279 c0 -5 -14 -24 -31 -43 l-30 -35 21 43 c18 37 41 56 40 35z m-1120
-148 c80 -8 228 -24 330 -35 102 -11 195 -20 208 -20 20 0 22 -5 22 -49 0 -40
30 -248 64 -436 65 -368 76 -414 98 -421 19 -6 60 0 116 17 21 7 32 17 32 30
0 24 17 25 24 2 2 -10 18 -90 35 -178 17 -88 87 -450 155 -805 69 -355 184
-953 256 -1330 72 -377 133 -693 136 -702 3 -12 0 -18 -9 -18 -9 0 -96 25
-195 55 -99 30 -187 55 -196 55 -8 0 -22 13 -30 29 -17 31 -34 41 -74 41 -21
0 -24 -2 -12 -10 12 -8 11 -10 -7 -10 -12 0 -25 5 -29 11 -3 6 -15 8 -26 6
-29 -8 -158 17 -198 38 -20 11 -65 20 -106 23 -72 4 -99 -3 -184 -53 -53 -31
-66 -22 -83 63 -9 42 -59 284 -111 537 -52 253 -133 645 -180 870 -47 226
-126 606 -175 845 -49 239 -111 534 -136 655 -49 232 -50 241 -61 430 -6 108
7 363 20 383 5 8 27 6 316 -23z m-360 -40 c0 -8 -4 -15 -10 -15 -5 0 -10 7
-10 15 0 8 5 15 10 15 6 0 10 -7 10 -15z m1213 -51 c43 -3 77 -10 75 -15 -6
-16 -151 -199 -158 -199 -10 0 -42 208 -34 221 3 5 13 8 22 5 10 -3 52 -8 95
-12z m-1233 -379 c0 -8 -4 -15 -9 -15 -13 0 -22 16 -14 24 11 11 23 6 23 -9z
m-400 -44 c0 -6 -4 -13 -10 -16 -5 -3 -10 1 -10 9 0 9 5 16 10 16 6 0 10 -4
10 -9z m1887 -387 c3 -9 0 -20 -7 -24 -11 -7 -10 -25 6 -101 l19 -92 90 -34
c88 -33 125 -56 108 -65 -16 -10 -205 67 -220 88 -16 25 -56 221 -47 235 9 15
44 10 51 -7z m129 -325 c64 -25 104 -46 104 -55 0 -17 -2 -17 -47 1 -19 8 -37
15 -40 15 -2 0 -1 -17 3 -37 6 -33 37 -79 107 -157 9 -11 17 -27 17 -35 0 -9
-29 16 -64 54 l-64 70 -44 -32 c-25 -18 -48 -29 -52 -26 -15 16 -2 40 35 66
39 27 41 30 34 65 -8 45 -8 45 -67 67 -27 10 -48 24 -48 31 0 20 11 18 126
-27z m59 -291 c44 -16 85 -35 91 -41 12 -13 57 -227 50 -235 -13 -12 -24 17
-41 109 -18 97 -20 102 -49 114 -17 8 -33 12 -34 10 -4 -3 14 -101 24 -137 4
-12 0 -18 -10 -18 -16 0 -19 6 -39 109 l-13 64 -49 17 c-31 10 -51 23 -53 34
-4 21 2 20 123 -26z m53 -263 c62 -23 102 -43 102 -51 0 -18 2 -19 -120 24
-78 28 -106 42 -108 56 -3 13 0 17 9 14 8 -3 60 -22 117 -43z m119 -151 c30
-124 41 -204 28 -204 -8 0 -16 19 -20 48 -3 26 -9 53 -13 59 -4 5 -51 25 -104
43 -76 25 -98 36 -98 50 0 17 6 16 78 -10 42 -16 85 -31 95 -35 20 -8 22 8 8
68 -7 28 -6 37 2 34 7 -2 17 -26 24 -53z m-67 -194 c45 -17 91 -35 101 -41 35
-18 21 -46 -51 -105 -38 -31 -70 -57 -70 -59 0 -1 41 -17 90 -34 60 -22 90
-38 90 -48 0 -8 -6 -13 -12 -10 -7 2 -57 19 -110 37 -138 46 -135 58 35 182
16 12 7 17 -82 48 -59 20 -101 39 -101 47 0 19 17 16 110 -17z m47 -296 c117
-39 129 -47 137 -91 3 -21 12 -71 20 -110 10 -56 11 -73 2 -73 -8 0 -20 39
-31 101 -18 97 -20 102 -49 114 -17 8 -33 12 -34 10 -4 -3 14 -101 24 -137 4
-12 0 -18 -9 -18 -15 0 -23 25 -42 132 -6 29 -13 39 -38 47 -16 6 -32 10 -34
8 -2 -2 6 -46 16 -98 20 -95 20 -112 0 -92 -9 9 -58 197 -59 226 0 11 15 9 97
-19z m9 -265 c3 -6 2 -15 -3 -20 -11 -11 19 -175 34 -190 4 -4 21 -11 36 -15
26 -6 28 -4 22 17 -21 90 -32 164 -28 176 12 30 97 -10 113 -52 21 -54 42
-197 31 -208 -8 -8 -14 -8 -23 1 -9 9 -9 15 -1 23 15 15 -21 180 -44 197 -26
19 -55 16 -49 -5 7 -23 36 -162 36 -173 0 -30 -102 -4 -120 31 -14 26 -51 209
-44 220 7 12 31 11 40 -2z m59 -289 c4 -6 2 -16 -3 -23 -7 -8 -5 -40 8 -100 9
-48 20 -90 22 -92 2 -3 18 -8 35 -11 l31 -6 -20 97 c-11 55 -16 101 -11 106
13 13 84 -13 100 -37 20 -31 56 -215 44 -227 -14 -14 -33 2 -26 23 7 20 -21
180 -33 192 -12 11 -62 21 -62 12 1 -5 9 -48 19 -96 10 -48 15 -92 11 -98 -9
-15 -83 6 -105 30 -16 18 -58 207 -51 227 6 16 32 17 41 3z m-85 -1000 c34 -2
34 -2 -11 -11 -34 -7 -57 -5 -85 5 l-39 14 50 -3 c28 -1 66 -4 85 -5z m-2459
-60 c10 -6 19 -15 19 -20 0 -17 -34 -11 -60 10 l-25 20 23 0 c13 0 32 -5 43
-10z m-126 -22 c14 -6 25 -15 25 -20 0 -15 -45 -8 -70 12 -25 19 -25 20 -3 20
12 0 34 -5 48 -12z m-122 -22 c9 -7 17 -16 17 -20 0 -13 -39 -5 -61 14 l-24
19 25 0 c14 0 33 -6 43 -13z m-130 -20 c23 -18 21 -26 -6 -26 -13 0 -32 9 -42
20 -18 19 -17 20 6 20 13 0 32 -7 42 -14z m-123 -26 l25 -20 -23 0 c-28 0 -62
17 -62 30 0 17 34 11 60 -10z m3555 0 c8 -13 -5 -13 -25 0 -13 8 -13 10 2 10
9 0 20 -4 23 -10z m-3685 -20 l25 -20 -23 0 c-28 0 -62 17 -62 30 0 17 34 11
60 -10z m-137 -17 l32 -18 -28 -3 c-30 -4 -61 14 -51 29 7 12 10 12 47 -8z
m-122 -24 c21 -11 17 -29 -5 -29 -8 0 -24 9 -37 20 l-24 19 23 1 c13 0 32 -5
43 -11z m-129 -23 c18 -13 14 -26 -8 -26 -6 0 -22 9 -35 20 l-24 19 25 0 c14
0 33 -6 42 -13z m-129 -20 c23 -18 21 -26 -6 -26 -13 0 -32 9 -42 20 -18 19
-17 20 6 20 13 0 32 -7 42 -14z m-128 -26 c18 -19 17 -20 -6 -20 -23 1 -59 21
-59 34 0 14 48 4 65 -14z m-139 -14 c10 -8 16 -18 11 -22 -10 -10 -59 8 -65
24 -5 17 30 15 54 -2z m-131 -26 c18 -19 17 -20 -6 -20 -25 0 -49 16 -49 32 0
16 37 8 55 -12z m4072 14 c-3 -3 -12 -4 -19 -1 -8 3 -5 6 6 6 11 1 17 -2 13
-5z m-39 -9 c-5 -6 -120 -27 -148 -28 -8 0 -17 -4 -20 -8 -5 -7 -87 -21 -137
-23 -28 -1 -29 -4 -3 -14 12 -4 -13 -8 -60 -9 -44 0 -87 -6 -94 -13 -8 -6 -43
-12 -78 -12 -55 -1 -59 -2 -30 -10 17 -5 32 -11 32 -14 0 -3 -8 -3 -18 0 -19
6 -196 -9 -228 -20 -14 -4 -16 -3 -5 4 11 8 11 10 0 15 -8 3 0 7 16 8 17 2 39
4 50 4 11 1 27 5 35 8 8 3 69 15 135 26 66 11 174 29 240 41 237 43 324 55
313 45z m-4169 -21 c15 -11 19 -20 13 -26 -12 -12 -75 19 -67 32 9 14 27 12
54 -6z m-128 -25 c11 -5 17 -14 14 -20 -10 -15 -41 -10 -60 11 -18 19 -17 20
4 20 12 0 31 -5 42 -11z m-131 -24 c7 -9 10 -18 6 -22 -9 -10 -59 10 -64 25
-6 18 43 15 58 -3z m-137 -19 c23 -18 21 -26 -6 -26 -13 0 -32 9 -42 20 -18
19 -17 20 6 20 13 0 32 -7 42 -14z m-140 -20 c23 -18 21 -26 -6 -26 -23 0 -47
17 -47 32 0 13 33 9 53 -6z m-134 -22 c21 -15 22 -18 7 -26 -20 -11 -71 17
-61 32 9 15 28 12 54 -6z m4026 -13 c-14 -12 -85 -22 -85 -11 0 8 17 11 80 18
8 1 10 -1 5 -7z m-4157 -13 c32 -32 -12 -39 -49 -8 l-24 19 31 1 c16 0 35 -5
42 -12z m4042 -8 c18 -12 2 -12 -25 0 -13 6 -15 9 -5 9 8 0 22 -4 30 -9z
m-4182 -12 c18 -18 14 -28 -11 -28 -23 0 -47 17 -47 32 0 12 45 9 58 -4z
m4245 -5 c-7 -2 -19 -2 -25 0 -7 3 -2 5 12 5 14 0 19 -2 13 -5z m-213 -55 c0
-11 -20 -10 -80 4 -35 8 -46 14 -35 18 21 7 115 -11 115 -22z m-137 -19 c17
-7 8 -8 -35 -5 -31 2 -65 10 -75 16 -14 9 -7 10 35 5 29 -3 62 -10 75 -16z
m-180 -10 c31 -7 57 -16 57 -20 0 -11 -5 -11 -73 2 -31 7 -57 16 -57 20 0 11
5 11 73 -2z m-84 -39 c26 -15 -47 -11 -94 6 l-40 14 59 -5 c32 -3 66 -10 75
-15z m-179 -11 c33 -7 48 -15 42 -21 -10 -10 -99 8 -116 23 -13 12 12 11 74
-2z m2300 1 c0 -5 -4 -10 -10 -10 -5 0 -10 5 -10 10 0 6 5 10 10 10 6 0 10 -4
10 -10z m-2436 -26 c37 -6 60 -24 32 -24 -8 0 -38 5 -67 11 -36 8 -47 14 -38
20 8 5 19 7 26 4 6 -2 28 -7 47 -11z m-119 -30 l40 -14 -57 4 c-67 5 -116 26
-58 25 19 0 53 -7 75 -15z m-167 -15 c53 -13 78 -29 44 -29 -32 0 -112 23
-112 32 0 11 13 10 68 -3z m-90 -39 c13 -9 5 -10 -36 -6 -28 3 -60 10 -70 16
-13 9 -5 10 36 6 28 -3 60 -10 70 -16z m-179 -12 c47 -11 70 -28 37 -28 -29 0
-116 24 -116 32 0 11 19 10 79 -4z m-114 -34 l40 -14 -57 4 c-67 5 -116 26
-58 25 19 0 53 -7 75 -15z m-159 -15 c42 -11 61 -29 30 -29 -29 0 -116 24
-116 32 0 11 33 10 86 -3z m-121 -35 l40 -14 -57 4 c-67 5 -116 26 -58 25 19
0 53 -7 75 -15z m-160 -16 c43 -12 61 -28 31 -28 -29 0 -116 24 -116 32 0 11
32 10 85 -4z m-128 -30 c40 -10 43 -12 25 -19 -20 -7 -122 15 -122 26 0 9 50
5 97 -7z m-128 -30 c41 -17 6 -22 -55 -9 -32 8 -52 17 -48 23 7 11 58 4 103
-14z m-154 -22 c31 -10 36 -15 23 -20 -16 -7 -128 19 -128 29 0 9 65 3 105 -9z
m-177 -17 c57 -14 77 -29 38 -29 -40 0 -106 21 -100 31 7 11 6 11 62 -2z
m-125 -30 c36 -10 51 -29 22 -29 -27 0 -105 24 -105 32 0 11 38 10 83 -3z
m957 -9 c0 -23 -62 -131 -83 -144 -23 -15 -127 -32 -127 -21 0 3 18 39 41 80
37 69 43 75 82 83 58 13 87 14 87 2z m-1089 -24 l34 -14 -30 -1 c-44 -1 -107
18 -99 31 7 12 47 5 95 -16z m4409 -6 c0 -11 -7 -20 -15 -20 -13 0 -13 3 -3
20 7 11 14 20 15 20 2 0 3 -9 3 -20z m-3500 5 c0 -3 -9 -23 -20 -45 -11 -21
-17 -46 -14 -54 4 -10 1 -16 -9 -16 -9 0 -19 -9 -22 -20 -3 -11 -10 -20 -15
-20 -5 0 -7 7 -3 16 5 15 0 16 -40 10 -26 -4 -47 -5 -47 -2 0 7 153 135 163
136 4 0 7 -2 7 -5z m-1069 -17 c43 -12 52 -28 15 -28 -27 0 -86 19 -100 31
-14 13 40 11 85 -3z m945 -5 c-4 -5 -21 -13 -38 -18 -22 -8 -39 -27 -65 -75
-19 -36 -39 -69 -45 -75 -14 -13 -10 -4 30 73 l32 62 -32 0 c-46 0 -27 11 44
25 81 16 83 16 74 8z m-160 -32 c-3 -5 -35 -14 -70 -21 l-65 -12 -31 -60 c-17
-33 -30 -62 -27 -64 2 -2 28 0 57 6 49 9 81 7 49 -4 -35 -12 -122 -26 -128
-21 -6 6 54 122 76 145 19 21 150 50 139 31z m-176 -36 c0 -13 -71 -144 -81
-150 -6 -4 -3 7 6 25 17 33 17 33 -7 27 -12 -3 -40 -9 -60 -12 -28 -5 -39 -14
-48 -36 -7 -16 -16 -29 -21 -29 -12 0 55 132 75 149 25 21 136 42 136 26z
m-2775 -181 c176 -104 263 -160 256 -167 -11 -11 -13 -9 -333 175 -150 86
-205 123 -201 134 3 7 7 14 9 14 1 0 123 -70 269 -156z m2605 142 c0 -7 -10
-28 -23 -47 -19 -29 -32 -36 -86 -48 -52 -11 -66 -18 -80 -42 -9 -16 -19 -29
-22 -29 -3 0 12 36 35 80 38 74 44 80 81 89 61 14 95 13 95 -3z m-203 -96
c-23 -44 -45 -80 -49 -80 -4 0 8 29 28 65 20 36 32 65 28 65 -5 0 -27 -19 -50
-41 -42 -41 -64 -44 -64 -9 0 41 -19 26 -55 -41 -20 -39 -39 -68 -42 -66 -7 8
81 167 93 167 6 0 15 -17 20 -37 l9 -38 50 47 c28 26 55 48 62 48 6 0 -7 -36
-30 -80z m-191 -29 c-19 -37 -40 -72 -48 -78 -15 -12 -127 -37 -134 -30 -7 7
63 144 78 154 16 10 120 31 130 26 4 -2 -8 -34 -26 -72z m-1231 49 c3 -5 2
-10 -4 -10 -5 0 -13 5 -16 10 -3 6 -2 10 4 10 5 0 13 -4 16 -10z m1091 -9 c-3
-5 -35 -14 -71 -21 l-66 -12 -29 -59 c-17 -32 -30 -61 -30 -65 0 -6 81 3 106
13 8 3 14 1 14 -5 0 -11 -129 -37 -138 -27 -7 7 35 96 62 130 16 20 38 30 81
40 77 17 77 17 71 6z m-1176 -58 c0 -7 -8 -13 -17 -13 -15 0 -15 2 -4 9 12 8
7 14 -22 31 -50 30 -47 37 3 9 22 -13 40 -29 40 -36z m125 39 c-3 -3 -11 0
-18 7 -9 10 -8 11 6 5 10 -3 15 -9 12 -12z m-245 -12 c-15 -9 17 -23 33 -14 9
5 9 4 0 -6 -8 -8 -16 -9 -29 -2 -22 12 -28 43 -7 35 10 -4 11 -8 3 -13z m185
10 c3 -6 -1 -7 -9 -4 -18 7 -21 14 -7 14 6 0 13 -4 16 -10z m72 -16 c-3 -3
-12 -4 -19 -1 -8 3 -5 6 6 6 11 1 17 -2 13 -5z m863 -1 c-1 -25 -48 -88 -69
-91 -20 -3 -22 -8 -17 -33 7 -35 -11 -39 -20 -4 -3 14 -11 25 -18 25 -32 -1
-58 -16 -72 -42 -9 -17 -18 -28 -21 -25 -3 4 50 119 73 155 7 12 144 26 144
15z m-1200 -22 c0 -12 -41 -22 -54 -13 -6 3 0 9 14 13 36 10 40 10 40 0z
m1020 -5 c0 -3 -26 -10 -57 -16 -56 -11 -83 -30 -83 -57 0 -10 11 -12 43 -7
31 4 38 3 27 -5 -8 -6 -27 -11 -42 -11 -30 0 -68 -31 -68 -54 0 -11 8 -12 38
-5 20 5 46 8 57 8 19 0 19 -1 -1 -9 -40 -16 -114 -23 -114 -11 0 7 17 43 38
81 33 63 41 70 77 79 45 10 85 13 85 7z m-1272 -70 c3 -3 -2 -6 -10 -6 -9 0
-21 -13 -28 -30 -14 -33 -17 -34 -55 -20 -17 6 -33 7 -44 0 -35 -18 -52 -144
-19 -137 6 1 13 -5 15 -13 4 -12 3 -12 -5 -1 -6 8 -12 9 -16 3 -5 -9 -46 -6
-46 4 0 1 14 44 31 95 17 51 32 101 34 111 2 10 6 22 9 27 6 8 121 -21 134
-33z m1112 32 c0 -24 -40 -78 -63 -87 -12 -4 -43 -11 -68 -15 -40 -6 -48 -11
-63 -43 -9 -19 -19 -33 -22 -30 -4 4 61 135 81 165 3 4 87 20 113 21 12 1 22
-5 22 -11z m-205 -95 c-20 -37 -40 -72 -45 -77 -10 -10 -133 -37 -139 -30 -3
2 13 40 34 84 21 44 40 78 42 76 2 -2 -11 -33 -29 -70 -17 -36 -29 -68 -26
-71 3 -4 30 0 59 7 53 13 55 14 92 86 22 41 41 71 44 68 3 -3 -11 -36 -32 -73z
m-147 35 c-3 -7 -18 -12 -34 -13 -73 -3 -86 -7 -109 -31 -14 -15 -23 -30 -20
-34 2 -4 29 -2 60 3 30 6 58 8 61 5 12 -13 -29 -70 -59 -82 -47 -19 -117 -27
-117 -13 0 7 18 12 43 13 67 1 93 11 106 40 l12 27 -61 -7 c-70 -8 -78 4 -32
54 20 23 40 33 77 39 72 12 77 12 73 -1z m-1288 -93 c0 -3 -27 8 -60 25 -33
17 -60 33 -60 35 0 3 27 -8 60 -25 33 -17 60 -33 60 -35z m121 -55 c101 -49
138 -71 89 -52 -41 16 -174 80 -190 91 -32 23 3 9 101 -39z m1809 -66 c0 -3
-14 -55 -32 -115 -35 -123 -38 -125 -129 -117 -27 3 -49 2 -49 -2 0 -8 -140
-43 -146 -37 -2 2 -23 45 -48 97 -39 82 -43 96 -28 99 35 8 407 79 420 80 6 1
12 -2 12 -5z"/>
<path d="M6568 2083 c7 -3 16 -2 19 1 4 3 -2 6 -13 5 -11 0 -14 -3 -6 -6z"/>
<path d="M6288 2033 c7 -3 16 -2 19 1 4 3 -2 6 -13 5 -11 0 -14 -3 -6 -6z"/>
<path d="M4193 1463 c-28 -4 -73 -47 -60 -59 11 -11 108 19 117 36 17 32 18
32 -57 23z"/>
<path d="M4175 1393 c-11 -2 -29 -6 -41 -8 -11 -3 -26 -16 -33 -31 l-12 -26
47 7 c63 9 70 12 82 41 12 26 7 28 -43 17z"/>
<path d="M4016 1384 c-26 -20 -46 -38 -44 -40 13 -12 65 17 81 44 10 18 17 32
14 32 -2 0 -25 -16 -51 -36z"/>
<path d="M3562 1347 c-44 -7 -55 -13 -68 -39 -8 -16 -13 -32 -11 -35 3 -3 30
0 59 6 47 10 55 16 66 43 6 17 11 32 9 33 -1 1 -26 -3 -55 -8z"/>
<path d="M3394 1317 c-45 -8 -54 -14 -68 -43 -18 -38 -17 -38 53 -23 40 8 51
15 61 40 7 16 11 31 9 32 -2 2 -27 -1 -55 -6z"/>
<path d="M3015 1249 c-35 -8 -44 -16 -73 -70 -18 -34 -31 -64 -28 -66 5 -6 89
7 103 15 6 4 25 35 42 70 35 69 35 69 -44 51z"/>
<path d="M2676 1187 c-40 -10 -54 -19 -69 -44 l-19 -33 24 0 c51 0 98 21 113
50 24 46 26 44 -49 27z"/>
<path d="M2342 1127 c-43 -7 -55 -14 -67 -37 -8 -16 -15 -32 -15 -36 0 -6 81
3 107 13 17 7 46 60 35 66 -4 2 -31 -1 -60 -6z"/>
</g>
</svg>
