<?xml version="1.0" standalone="no"?>
<!DOCTYPE svg PUBLIC "-//W3C//DTD SVG 20010904//EN"
 "http://www.w3.org/TR/2001/REC-SVG-20010904/DTD/svg10.dtd">
<svg version="1.0" xmlns="http://www.w3.org/2000/svg"
 width="160.000000pt" height="160.000000pt" viewBox="0 0 160.000000 160.000000"
 preserveAspectRatio="xMidYMid meet">

<g transform="translate(0.000000,160.000000) scale(0.100000,-0.100000)"
fill="#efefef" stroke="none">
<path d="M1061 1485 c-22 -61 -39 -86 -126 -177 -53 -55 -46 -97 18 -112 15
-3 27 -13 27 -21 0 -7 9 -17 20 -20 34 -11 20 -40 -20 -40 -22 0 -25 -4 -25
-35 0 -32 3 -35 28 -35 26 1 27 -2 27 -46 0 -25 -11 -97 -25 -159 -21 -91 -23
-115 -13 -121 10 -7 9 -9 -2 -9 -11 0 -20 -18 -29 -61 l-12 -60 -47 8 c-60 10
-156 10 -203 0 -36 -7 -37 -7 -44 29 -3 20 -10 44 -15 53 -5 9 -25 76 -43 149
l-34 133 25 19 c13 11 42 25 63 32 41 12 50 31 22 47 -10 5 -71 9 -137 9 -102
0 -121 -3 -137 -19 -11 -11 -19 -23 -19 -28 0 -18 44 -41 91 -47 l46 -6 36
-147 c49 -195 49 -197 15 -193 -29 3 -35 -9 -22 -42 8 -20 34 -21 34 -1 0 8 6
15 14 15 20 0 27 -54 14 -108 -19 -80 -16 -77 -38 -57 -18 17 -21 17 -45 1
-14 -9 -23 -21 -20 -26 3 -4 0 -10 -6 -12 -9 -3 -8 -11 1 -28 7 -14 16 -32 20
-40 5 -10 19 -14 46 -12 22 1 45 -2 53 -7 15 -10 10 -45 -11 -74 -16 -22 -101
-44 -106 -28 -2 6 -12 11 -22 11 -10 0 -22 5 -25 10 -3 6 -17 10 -30 10 -24 0
-47 20 -23 20 8 1 6 6 -6 15 -25 19 -56 3 -56 -29 0 -22 18 -38 45 -41 12 -1
58 -25 65 -34 3 -4 28 -23 55 -43 28 -20 60 -50 73 -67 12 -17 31 -31 41 -31
20 0 48 27 37 37 -3 3 -6 1 -6 -5 0 -7 -9 -12 -20 -12 -25 0 -28 38 -4 47 14
5 13 9 -7 24 -30 23 -43 24 -35 3 5 -14 4 -15 -8 -4 -27 21 3 35 132 61 67 13
122 26 122 29 0 3 -41 25 -90 50 -50 25 -93 52 -96 62 -6 21 13 88 26 88 5 0
4 -16 -2 -36 -5 -20 -7 -42 -4 -49 2 -7 48 -36 101 -63 85 -44 101 -49 132
-42 19 5 40 13 45 18 12 12 118 -5 138 -22 29 -25 38 -27 33 -7 -3 12 3 24 17
34 l22 15 -24 7 c-12 4 -42 16 -64 28 l-42 21 25 70 c39 116 33 165 -25 187
-16 6 -22 14 -18 27 21 67 76 340 76 379 0 26 3 78 6 115 l7 66 31 -5 c46 -7
85 30 129 124 46 98 82 234 64 245 -18 11 -23 1 -46 -92 -39 -156 -105 -259
-154 -241 -19 8 -22 15 -19 62 2 40 10 61 33 90 33 42 31 59 -5 59 -24 0 -61
-32 -50 -43 3 -3 -3 -5 -15 -4 l-21 1 21 22 c16 17 79 153 79 170 0 2 -8 4
-18 4 -13 0 -24 -17 -41 -65z m-84 -189 c-4 -9 3 -16 19 -20 31 -8 31 -30 0
-44 -22 -10 -66 -6 -66 5 0 3 9 21 21 39 21 35 36 46 26 20z m70 -158 c-3 -8
-6 -5 -6 6 -1 11 2 17 5 13 3 -3 4 -12 1 -19z m-154 -594 c70 -12 37 -19 -83
-19 -110 0 -140 5 -107 18 18 8 146 8 190 1z m141 -88 c-13 -48 -36 -107 -41
-102 -3 3 2 24 11 48 9 24 15 59 12 78 -4 31 -3 33 10 15 8 -10 12 -28 8 -39z
m-230 8 c9 -3 16 -13 16 -22 0 -13 2 -13 18 0 9 8 24 18 32 22 8 4 3 -3 -12
-16 -16 -13 -28 -29 -28 -36 0 -18 -46 -62 -64 -62 -20 0 -46 28 -46 49 0 23
37 71 55 71 7 0 20 -3 29 -6z m186 -14 c0 -5 -4 -10 -10 -10 -5 0 -10 5 -10
10 0 6 5 10 10 10 6 0 10 -4 10 -10z m-72 -120 c28 -13 43 -30 26 -30 -15 0
-74 33 -74 42 0 5 3 8 8 6 4 -3 22 -11 40 -18z m-272 -116 c-4 -9 -9 -15 -11
-12 -3 3 -3 13 1 22 4 9 9 15 11 12 3 -3 3 -13 -1 -22z m-96 -44 c0 -5 -4 -10
-10 -10 -5 0 -10 5 -10 10 0 6 5 10 10 10 6 0 10 -4 10 -10z"/>
<path d="M755 434 c-33 -33 -3 -79 35 -54 12 8 13 12 2 19 -10 6 -8 10 10 14
22 6 22 7 3 21 -25 20 -30 19 -50 0z"/>
</g>
</svg>
